<mxfile host="65bd71144e">
    <diagram id="Xj-31u40it1VnwJVtQ1H" name="Page-1">
        <mxGraphModel dx="1127" dy="229" grid="1" gridSize="10" guides="1" tooltips="1" connect="1" arrows="1" fold="1" page="1" pageScale="1" pageWidth="850" pageHeight="1100" background="#ffffff" math="0" shadow="0">
            <root>
                <mxCell id="0"/>
                <mxCell id="1" parent="0"/>
                <mxCell id="88" style="edgeStyle=none;shape=connector;rounded=1;html=1;entryX=0;entryY=0.25;entryDx=0;entryDy=0;strokeColor=default;align=center;verticalAlign=middle;fontFamily=Helvetica;fontSize=11;fontColor=default;labelBackgroundColor=default;startSize=12;endArrow=open;endFill=0;endSize=12;" edge="1" parent="1" target="5">
                    <mxGeometry relative="1" as="geometry">
                        <mxPoint x="-430" y="235" as="sourcePoint"/>
                    </mxGeometry>
                </mxCell>
                <mxCell id="92" value="requests" style="edgeLabel;html=1;align=center;verticalAlign=middle;resizable=0;points=[];rounded=1;fontFamily=Helvetica;fontSize=11;fontColor=default;labelBackgroundColor=none;" vertex="1" connectable="0" parent="88">
                    <mxGeometry x="-0.1904" relative="1" as="geometry">
                        <mxPoint x="9" y="-12" as="offset"/>
                    </mxGeometry>
                </mxCell>
                <mxCell id="91" style="edgeStyle=none;shape=connector;rounded=1;html=1;strokeColor=default;align=center;verticalAlign=middle;fontFamily=Helvetica;fontSize=11;fontColor=default;labelBackgroundColor=default;startSize=12;endArrow=open;endFill=0;endSize=12;exitX=0.895;exitY=1.023;exitDx=0;exitDy=0;exitPerimeter=0;entryX=0.651;entryY=0.031;entryDx=0;entryDy=0;entryPerimeter=0;" edge="1" parent="1">
                    <mxGeometry relative="1" as="geometry">
                        <mxPoint x="-472" y="336.05" as="sourcePoint"/>
                        <mxPoint x="-471.8800000000001" y="412.49999999999994" as="targetPoint"/>
                    </mxGeometry>
                </mxCell>
                <mxCell id="82" value="" style="rounded=1;whiteSpace=wrap;html=1;fillColor=#E6E6E6;strokeColor=default;sketch=1;curveFitting=1;jiggle=2;" vertex="1" parent="1">
                    <mxGeometry x="-830" y="156.25" width="400" height="180" as="geometry"/>
                </mxCell>
                <mxCell id="10" style="edgeStyle=none;shape=connector;rounded=1;html=1;strokeColor=default;align=center;verticalAlign=middle;fontFamily=Helvetica;fontSize=11;fontColor=default;labelBackgroundColor=default;startSize=12;endArrow=open;endFill=0;endSize=12;exitX=1.008;exitY=0.322;exitDx=0;exitDy=0;exitPerimeter=0;entryX=0;entryY=0.75;entryDx=0;entryDy=0;" edge="1" parent="1" source="2" target="3">
                    <mxGeometry relative="1" as="geometry">
                        <Array as="points">
                            <mxPoint x="230" y="340"/>
                        </Array>
                    </mxGeometry>
                </mxCell>
                <mxCell id="39" value="listens" style="edgeLabel;html=1;align=center;verticalAlign=middle;resizable=0;points=[];fontFamily=Helvetica;fontSize=11;fontColor=default;labelBackgroundColor=none;rounded=1;" vertex="1" connectable="0" parent="10">
                    <mxGeometry x="0.3149" y="2" relative="1" as="geometry">
                        <mxPoint x="-11" y="-12" as="offset"/>
                    </mxGeometry>
                </mxCell>
                <mxCell id="27" style="edgeStyle=none;shape=connector;rounded=1;html=1;strokeColor=default;align=center;verticalAlign=middle;fontFamily=Helvetica;fontSize=11;fontColor=default;labelBackgroundColor=default;startSize=12;endArrow=open;endFill=0;endSize=12;exitX=0.008;exitY=0.671;exitDx=0;exitDy=0;exitPerimeter=0;entryX=1;entryY=0.25;entryDx=0;entryDy=0;" edge="1" parent="1" source="2" target="7">
                    <mxGeometry relative="1" as="geometry"/>
                </mxCell>
                <mxCell id="35" value="recieves rejects" style="edgeLabel;html=1;align=center;verticalAlign=middle;resizable=0;points=[];fontFamily=Helvetica;fontSize=11;fontColor=default;labelBackgroundColor=none;rounded=1;" vertex="1" connectable="0" parent="27">
                    <mxGeometry x="-0.3287" y="-2" relative="1" as="geometry">
                        <mxPoint x="-17" y="-14" as="offset"/>
                    </mxGeometry>
                </mxCell>
                <mxCell id="43" style="edgeStyle=none;shape=connector;rounded=1;html=1;strokeColor=default;align=center;verticalAlign=middle;fontFamily=Helvetica;fontSize=11;fontColor=default;labelBackgroundColor=default;startSize=12;endArrow=open;endFill=0;endSize=12;exitX=0;exitY=0.25;exitDx=0;exitDy=0;" edge="1" parent="1" source="2" target="5">
                    <mxGeometry relative="1" as="geometry"/>
                </mxCell>
                <mxCell id="44" value="consumes" style="edgeLabel;html=1;align=center;verticalAlign=middle;resizable=0;points=[];fontFamily=Helvetica;fontSize=11;fontColor=default;labelBackgroundColor=none;rounded=1;" vertex="1" connectable="0" parent="43">
                    <mxGeometry x="-0.3211" y="2" relative="1" as="geometry">
                        <mxPoint x="-16" y="-18" as="offset"/>
                    </mxGeometry>
                </mxCell>
                <mxCell id="72" style="edgeStyle=none;shape=connector;rounded=1;html=1;strokeColor=default;align=center;verticalAlign=middle;fontFamily=Helvetica;fontSize=11;fontColor=default;labelBackgroundColor=default;startSize=12;endArrow=open;endFill=0;endSize=12;exitX=0;exitY=0.75;exitDx=0;exitDy=0;" edge="1" parent="1" source="2" target="7">
                    <mxGeometry relative="1" as="geometry"/>
                </mxCell>
                <mxCell id="73" value="recieves updates" style="edgeLabel;html=1;align=center;verticalAlign=middle;resizable=0;points=[];fontFamily=Helvetica;fontSize=11;fontColor=default;labelBackgroundColor=none;rounded=1;" vertex="1" connectable="0" parent="72">
                    <mxGeometry x="-0.3547" y="-1" relative="1" as="geometry">
                        <mxPoint x="-18" y="-9" as="offset"/>
                    </mxGeometry>
                </mxCell>
                <mxCell id="2" value="" style="rounded=1;whiteSpace=wrap;html=1;fillColor=#dae8fc;strokeColor=#6c8ebf;sketch=1;curveFitting=1;jiggle=2;" vertex="1" parent="1">
                    <mxGeometry x="-30" y="160" width="220" height="430" as="geometry"/>
                </mxCell>
                <mxCell id="8" style="edgeStyle=none;html=1;entryX=1.015;entryY=0.167;entryDx=0;entryDy=0;entryPerimeter=0;exitX=0;exitY=0.25;exitDx=0;exitDy=0;endArrow=open;endFill=0;endSize=12;startSize=12;rounded=1;" edge="1" parent="1" source="3" target="2">
                    <mxGeometry relative="1" as="geometry">
                        <Array as="points">
                            <mxPoint x="230" y="200"/>
                        </Array>
                    </mxGeometry>
                </mxCell>
                <mxCell id="38" value="push" style="edgeLabel;html=1;align=center;verticalAlign=middle;resizable=0;points=[];fontFamily=Helvetica;fontSize=11;fontColor=default;labelBackgroundColor=none;rounded=1;" vertex="1" connectable="0" parent="8">
                    <mxGeometry x="-0.1804" relative="1" as="geometry">
                        <mxPoint x="-8" y="16" as="offset"/>
                    </mxGeometry>
                </mxCell>
                <mxCell id="11" style="edgeStyle=none;shape=connector;rounded=1;html=1;strokeColor=default;align=center;verticalAlign=middle;fontFamily=Helvetica;fontSize=11;fontColor=default;labelBackgroundColor=default;startSize=12;endArrow=open;endFill=0;endSize=12;exitX=0.25;exitY=1;exitDx=0;exitDy=0;entryX=0.25;entryY=0;entryDx=0;entryDy=0;" edge="1" parent="1" source="3" target="4">
                    <mxGeometry relative="1" as="geometry">
                        <Array as="points">
                            <mxPoint x="270" y="370"/>
                        </Array>
                    </mxGeometry>
                </mxCell>
                <mxCell id="40" value="changes" style="edgeLabel;html=1;align=center;verticalAlign=middle;resizable=0;points=[];fontFamily=Helvetica;fontSize=11;fontColor=default;labelBackgroundColor=none;rounded=1;" vertex="1" connectable="0" parent="11">
                    <mxGeometry x="0.3247" y="-1" relative="1" as="geometry">
                        <mxPoint x="21" y="-11" as="offset"/>
                    </mxGeometry>
                </mxCell>
                <mxCell id="3" value="pygame.loop" style="rounded=1;whiteSpace=wrap;html=1;fillColor=#d5e8d4;strokeColor=#82b366;sketch=1;curveFitting=1;jiggle=2;" vertex="1" parent="1">
                    <mxGeometry x="270" y="200" width="120" height="130" as="geometry"/>
                </mxCell>
                <mxCell id="13" style="edgeStyle=none;shape=connector;rounded=1;html=1;strokeColor=default;align=center;verticalAlign=middle;fontFamily=Helvetica;fontSize=11;fontColor=default;labelBackgroundColor=default;startSize=12;endArrow=none;endFill=0;endSize=12;entryX=0.75;entryY=1;entryDx=0;entryDy=0;dashed=1;dashPattern=8 8;startArrow=open;startFill=0;" edge="1" parent="1" source="4" target="3">
                    <mxGeometry relative="1" as="geometry">
                        <Array as="points">
                            <mxPoint x="380" y="370"/>
                        </Array>
                    </mxGeometry>
                </mxCell>
                <mxCell id="42" value="views" style="edgeLabel;html=1;align=center;verticalAlign=middle;resizable=0;points=[];fontFamily=Helvetica;fontSize=11;fontColor=default;labelBackgroundColor=none;rounded=1;" vertex="1" connectable="0" parent="13">
                    <mxGeometry x="-0.2302" y="-1" relative="1" as="geometry">
                        <mxPoint x="23" y="-7" as="offset"/>
                    </mxGeometry>
                </mxCell>
                <mxCell id="4" value="WorldState" style="rounded=1;whiteSpace=wrap;html=1;fillColor=#d5e8d4;strokeColor=#82b366;sketch=1;curveFitting=1;jiggle=2;" vertex="1" parent="1">
                    <mxGeometry x="270" y="410" width="120" height="130" as="geometry"/>
                </mxCell>
                <mxCell id="45" style="edgeStyle=none;shape=connector;rounded=1;html=1;strokeColor=default;align=center;verticalAlign=middle;fontFamily=Helvetica;fontSize=11;fontColor=default;labelBackgroundColor=default;startSize=12;endArrow=open;endFill=0;endSize=12;entryX=0.994;entryY=0.603;entryDx=0;entryDy=0;entryPerimeter=0;" edge="1" parent="1" source="5" target="4">
                    <mxGeometry relative="1" as="geometry">
                        <Array as="points">
                            <mxPoint x="-220" y="90"/>
                            <mxPoint x="520" y="90"/>
                            <mxPoint x="520" y="490"/>
                        </Array>
                    </mxGeometry>
                </mxCell>
                <mxCell id="46" value="produces side effects" style="edgeLabel;html=1;align=center;verticalAlign=middle;resizable=0;points=[];fontFamily=Helvetica;fontSize=11;fontColor=default;labelBackgroundColor=none;rounded=1;" vertex="1" connectable="0" parent="45">
                    <mxGeometry x="-0.196" y="1" relative="1" as="geometry">
                        <mxPoint x="-95" y="11" as="offset"/>
                    </mxGeometry>
                </mxCell>
                <mxCell id="5" value="Engines" style="rounded=1;whiteSpace=wrap;html=1;fillColor=#f8cecc;strokeColor=#b85450;sketch=1;curveFitting=1;jiggle=2;" vertex="1" parent="1">
                    <mxGeometry x="-280" y="200" width="120" height="140" as="geometry"/>
                </mxCell>
                <mxCell id="18" style="edgeStyle=none;shape=connector;rounded=1;html=1;entryX=0.5;entryY=1;entryDx=0;entryDy=0;strokeColor=default;align=center;verticalAlign=middle;fontFamily=Helvetica;fontSize=11;fontColor=default;labelBackgroundColor=default;startSize=12;endArrow=open;endFill=0;endSize=12;exitX=0.5;exitY=1;exitDx=0;exitDy=0;dashed=1;dashPattern=8 8;" edge="1" parent="1" source="78" target="4">
                    <mxGeometry relative="1" as="geometry">
                        <Array as="points">
                            <mxPoint x="-660" y="650"/>
                            <mxPoint x="330" y="650"/>
                        </Array>
                    </mxGeometry>
                </mxCell>
                <mxCell id="37" value="views" style="edgeLabel;html=1;align=center;verticalAlign=middle;resizable=0;points=[];fontFamily=Helvetica;fontSize=11;fontColor=default;labelBackgroundColor=default;rounded=1;" vertex="1" connectable="0" parent="18">
                    <mxGeometry x="-0.0865" y="3" relative="1" as="geometry">
                        <mxPoint x="-8" y="-7" as="offset"/>
                    </mxGeometry>
                </mxCell>
                <mxCell id="25" style="edgeStyle=none;shape=connector;rounded=1;html=1;strokeColor=default;align=center;verticalAlign=middle;fontFamily=Helvetica;fontSize=11;fontColor=default;labelBackgroundColor=default;startSize=12;endArrow=open;endFill=0;endSize=12;exitX=1.004;exitY=0.86;exitDx=0;exitDy=0;exitPerimeter=0;entryX=0.012;entryY=0.86;entryDx=0;entryDy=0;entryPerimeter=0;" edge="1" parent="1" source="6" target="7">
                    <mxGeometry relative="1" as="geometry"/>
                </mxCell>
                <mxCell id="33" value="creates" style="edgeLabel;html=1;align=center;verticalAlign=middle;resizable=0;points=[];fontFamily=Helvetica;fontSize=11;fontColor=default;labelBackgroundColor=none;rounded=1;" vertex="1" connectable="0" parent="25">
                    <mxGeometry x="0.1275" y="1" relative="1" as="geometry">
                        <mxPoint x="-16" y="-9" as="offset"/>
                    </mxGeometry>
                </mxCell>
                <mxCell id="76" style="edgeStyle=none;shape=connector;rounded=1;html=1;strokeColor=default;align=center;verticalAlign=middle;fontFamily=Helvetica;fontSize=11;fontColor=default;labelBackgroundColor=default;startSize=12;endArrow=open;endFill=0;endSize=12;exitX=1.023;exitY=0.68;exitDx=0;exitDy=0;exitPerimeter=0;entryX=0.008;entryY=0.68;entryDx=0;entryDy=0;entryPerimeter=0;" edge="1" parent="1" source="6" target="7">
                    <mxGeometry relative="1" as="geometry"/>
                </mxCell>
                <mxCell id="77" value="patches" style="edgeLabel;html=1;align=center;verticalAlign=middle;resizable=0;points=[];fontFamily=Helvetica;fontSize=11;fontColor=default;labelBackgroundColor=none;rounded=1;" vertex="1" connectable="0" parent="76">
                    <mxGeometry x="0.2937" relative="1" as="geometry">
                        <mxPoint x="-29" y="-11" as="offset"/>
                    </mxGeometry>
                </mxCell>
                <mxCell id="79" style="edgeStyle=none;shape=connector;rounded=1;html=1;strokeColor=default;align=center;verticalAlign=middle;fontFamily=Helvetica;fontSize=11;fontColor=default;labelBackgroundColor=default;startSize=12;endArrow=open;endFill=0;endSize=12;" edge="1" parent="1" source="6" target="78">
                    <mxGeometry relative="1" as="geometry">
                        <Array as="points">
                            <mxPoint x="-570" y="440"/>
                        </Array>
                    </mxGeometry>
                </mxCell>
                <mxCell id="87" style="edgeStyle=none;shape=connector;rounded=1;html=1;entryX=0.812;entryY=1.001;entryDx=0;entryDy=0;strokeColor=default;align=center;verticalAlign=middle;fontFamily=Helvetica;fontSize=11;fontColor=default;labelBackgroundColor=default;startSize=12;endArrow=open;endFill=0;endSize=12;exitX=0.374;exitY=0.01;exitDx=0;exitDy=0;exitPerimeter=0;entryPerimeter=0;" edge="1" parent="1" source="6" target="82">
                    <mxGeometry relative="1" as="geometry"/>
                </mxCell>
                <mxCell id="6" value="Agents" style="rounded=1;whiteSpace=wrap;html=1;fillColor=#f8cecc;strokeColor=#b85450;sketch=1;curveFitting=1;jiggle=2;" vertex="1" parent="1">
                    <mxGeometry x="-550" y="412.5" width="120" height="140" as="geometry"/>
                </mxCell>
                <mxCell id="28" style="edgeStyle=none;shape=connector;rounded=1;html=1;strokeColor=default;align=center;verticalAlign=middle;fontFamily=Helvetica;fontSize=11;fontColor=default;labelBackgroundColor=default;startSize=12;endArrow=open;endFill=0;endSize=12;entryX=1;entryY=0.25;entryDx=0;entryDy=0;exitX=0;exitY=0.25;exitDx=0;exitDy=0;" edge="1" parent="1" source="7" target="6">
                    <mxGeometry relative="1" as="geometry"/>
                </mxCell>
                <mxCell id="36" value="handle rejects" style="edgeLabel;html=1;align=center;verticalAlign=middle;resizable=0;points=[];fontFamily=Helvetica;fontSize=11;fontColor=default;labelBackgroundColor=none;rounded=1;" vertex="1" connectable="0" parent="28">
                    <mxGeometry x="-0.3408" relative="1" as="geometry">
                        <mxPoint x="-30" y="-15" as="offset"/>
                    </mxGeometry>
                </mxCell>
                <mxCell id="63" style="edgeStyle=none;shape=connector;rounded=1;html=1;strokeColor=default;align=center;verticalAlign=middle;fontFamily=Helvetica;fontSize=11;fontColor=default;labelBackgroundColor=default;startSize=12;endArrow=open;endFill=0;endSize=12;exitX=0.996;exitY=0.857;exitDx=0;exitDy=0;exitPerimeter=0;" edge="1" parent="1" source="7">
                    <mxGeometry relative="1" as="geometry">
                        <mxPoint x="-161.1499999999998" y="532.5000000000001" as="sourcePoint"/>
                        <mxPoint x="-20.002099960503475" y="507.47921156023773" as="targetPoint"/>
                        <Array as="points">
                            <mxPoint x="-50" y="532"/>
                        </Array>
                    </mxGeometry>
                </mxCell>
                <mxCell id="64" value="pushes" style="edgeLabel;html=1;align=center;verticalAlign=middle;resizable=0;points=[];fontFamily=Helvetica;fontSize=11;fontColor=default;labelBackgroundColor=none;rounded=1;" vertex="1" connectable="0" parent="63">
                    <mxGeometry x="-0.2206" relative="1" as="geometry">
                        <mxPoint x="13" y="-10" as="offset"/>
                    </mxGeometry>
                </mxCell>
                <mxCell id="74" style="edgeStyle=none;shape=connector;rounded=1;html=1;strokeColor=default;align=center;verticalAlign=middle;fontFamily=Helvetica;fontSize=11;fontColor=default;labelBackgroundColor=default;startSize=12;endArrow=open;endFill=0;endSize=12;" edge="1" parent="1" source="7" target="6">
                    <mxGeometry relative="1" as="geometry"/>
                </mxCell>
                <mxCell id="75" value="pass along updates" style="edgeLabel;html=1;align=center;verticalAlign=middle;resizable=0;points=[];fontFamily=Helvetica;fontSize=11;fontColor=default;labelBackgroundColor=none;rounded=1;" vertex="1" connectable="0" parent="74">
                    <mxGeometry x="-0.4064" y="-1" relative="1" as="geometry">
                        <mxPoint x="-25" y="-9" as="offset"/>
                    </mxGeometry>
                </mxCell>
                <mxCell id="7" value="Plans" style="rounded=1;whiteSpace=wrap;html=1;fillColor=#fff2cc;strokeColor=#d6b656;sketch=1;curveFitting=1;jiggle=2;" vertex="1" parent="1">
                    <mxGeometry x="-280" y="412.5" width="120" height="140" as="geometry"/>
                </mxCell>
                <mxCell id="14" value="EventStack" style="text;html=1;align=center;verticalAlign=middle;resizable=0;points=[];autosize=1;strokeColor=none;fillColor=none;fontFamily=Helvetica;fontSize=11;fontColor=default;labelBackgroundColor=none;rounded=1;" vertex="1" parent="1">
                    <mxGeometry x="40" y="130" width="80" height="30" as="geometry"/>
                </mxCell>
                <mxCell id="15" value="game" style="rounded=1;whiteSpace=wrap;html=1;fontFamily=Helvetica;fontSize=11;fontColor=default;labelBackgroundColor=default;sketch=1;curveFitting=1;jiggle=2;fillStyle=auto;" vertex="1" parent="1">
                    <mxGeometry x="20" y="552.5" width="120" height="20" as="geometry"/>
                </mxCell>
                <mxCell id="16" value="game start" style="rounded=1;whiteSpace=wrap;html=1;fontFamily=Helvetica;fontSize=11;fontColor=default;labelBackgroundColor=default;sketch=1;curveFitting=1;jiggle=2;fillStyle=auto;" vertex="1" parent="1">
                    <mxGeometry x="20" y="532.5" width="120" height="20" as="geometry"/>
                </mxCell>
                <mxCell id="17" value="agent-turn" style="rounded=1;whiteSpace=wrap;html=1;fontFamily=Helvetica;fontSize=11;labelBackgroundColor=none;dashed=1;dashPattern=8 8;fillColor=#e1d5e7;strokeColor=#9673a6;sketch=1;curveFitting=1;jiggle=2;" vertex="1" parent="1">
                    <mxGeometry x="30" y="512.5" width="120" height="20" as="geometry"/>
                </mxCell>
                <mxCell id="19" value="placement-phase" style="rounded=1;whiteSpace=wrap;html=1;fontFamily=Helvetica;fontSize=11;labelBackgroundColor=none;dashed=1;dashPattern=8 8;fillColor=#e1d5e7;strokeColor=#9673a6;sketch=1;curveFitting=1;jiggle=2;" vertex="1" parent="1">
                    <mxGeometry x="40" y="492.5" width="120" height="20" as="geometry"/>
                </mxCell>
                <mxCell id="30" style="edgeStyle=none;shape=connector;rounded=1;html=1;strokeColor=default;align=center;verticalAlign=middle;fontFamily=Helvetica;fontSize=11;fontColor=default;labelBackgroundColor=default;startSize=12;endArrow=none;endFill=0;endSize=12;entryX=1;entryY=0.5;entryDx=0;entryDy=0;exitX=0;exitY=0.5;exitDx=0;exitDy=0;" edge="1" parent="1" source="20" target="54">
                    <mxGeometry relative="1" as="geometry">
                        <mxPoint x="11" y="483" as="targetPoint"/>
                        <Array as="points">
                            <mxPoint x="30" y="483"/>
                        </Array>
                    </mxGeometry>
                </mxCell>
                <mxCell id="20" value="troop-placement" style="rounded=1;whiteSpace=wrap;html=1;fontFamily=Helvetica;fontSize=11;labelBackgroundColor=none;fillColor=#ffe6cc;strokeColor=#d79b00;sketch=1;curveFitting=1;jiggle=2;" vertex="1" parent="1">
                    <mxGeometry x="40" y="472.5" width="120" height="20" as="geometry"/>
                </mxCell>
                <mxCell id="31" style="edgeStyle=none;shape=connector;rounded=1;html=1;strokeColor=default;align=center;verticalAlign=middle;fontFamily=Helvetica;fontSize=11;fontColor=default;labelBackgroundColor=default;startSize=12;endArrow=none;endFill=0;endSize=12;exitX=0;exitY=0.5;exitDx=0;exitDy=0;entryX=1;entryY=0;entryDx=0;entryDy=0;" edge="1" parent="1" source="22" target="54">
                    <mxGeometry relative="1" as="geometry">
                        <mxPoint x="8" y="477" as="targetPoint"/>
                        <Array as="points">
                            <mxPoint x="30" y="463"/>
                        </Array>
                    </mxGeometry>
                </mxCell>
                <mxCell id="22" value="troop-placement" style="rounded=1;whiteSpace=wrap;html=1;fontFamily=Helvetica;fontSize=11;labelBackgroundColor=none;fillColor=#ffe6cc;strokeColor=#d79b00;sketch=1;curveFitting=1;jiggle=2;" vertex="1" parent="1">
                    <mxGeometry x="40" y="452.5" width="120" height="20" as="geometry"/>
                </mxCell>
                <mxCell id="32" style="edgeStyle=none;shape=connector;rounded=1;html=1;strokeColor=default;align=center;verticalAlign=middle;fontFamily=Helvetica;fontSize=11;fontColor=default;labelBackgroundColor=default;startSize=12;endArrow=none;endFill=0;endSize=12;exitX=0;exitY=0.5;exitDx=0;exitDy=0;entryX=0.671;entryY=0.091;entryDx=0;entryDy=0;entryPerimeter=0;" edge="1" parent="1" source="23" target="54">
                    <mxGeometry relative="1" as="geometry">
                        <mxPoint x="1" y="473" as="targetPoint"/>
                        <Array as="points">
                            <mxPoint x="20" y="450"/>
                        </Array>
                    </mxGeometry>
                </mxCell>
                <mxCell id="23" value="troop-placement" style="rounded=1;whiteSpace=wrap;html=1;fontFamily=Helvetica;fontSize=11;labelBackgroundColor=none;fillColor=#ffe6cc;strokeColor=#d79b00;sketch=1;curveFitting=1;jiggle=2;" vertex="1" parent="1">
                    <mxGeometry x="40" y="432.5" width="120" height="20" as="geometry"/>
                </mxCell>
                <mxCell id="24" value="attacking-phase" style="rounded=1;whiteSpace=wrap;html=1;fontFamily=Helvetica;fontSize=11;labelBackgroundColor=none;dashed=1;dashPattern=8 8;fillColor=#e1d5e7;strokeColor=#9673a6;sketch=1;curveFitting=1;jiggle=2;" vertex="1" parent="1">
                    <mxGeometry x="40" y="392.5" width="120" height="20" as="geometry"/>
                </mxCell>
                <mxCell id="59" style="edgeStyle=none;shape=connector;rounded=1;html=1;entryX=1;entryY=0.5;entryDx=0;entryDy=0;strokeColor=default;align=center;verticalAlign=middle;fontFamily=Helvetica;fontSize=11;fontColor=default;labelBackgroundColor=default;startSize=12;endArrow=none;endFill=0;endSize=12;exitX=0;exitY=0.5;exitDx=0;exitDy=0;" edge="1" parent="1" source="47" target="55">
                    <mxGeometry relative="1" as="geometry">
                        <Array as="points">
                            <mxPoint x="30" y="383"/>
                        </Array>
                    </mxGeometry>
                </mxCell>
                <mxCell id="47" value="attack" style="rounded=1;whiteSpace=wrap;html=1;fontFamily=Helvetica;fontSize=11;labelBackgroundColor=none;fillColor=#ffe6cc;strokeColor=#d79b00;sketch=1;curveFitting=1;jiggle=2;" vertex="1" parent="1">
                    <mxGeometry x="40" y="372.5" width="120" height="20" as="geometry"/>
                </mxCell>
                <mxCell id="48" value="casualty (atk)" style="rounded=1;whiteSpace=wrap;html=1;fontFamily=Helvetica;fontSize=11;labelBackgroundColor=none;fillColor=#ffe6cc;strokeColor=#d79b00;sketch=1;curveFitting=1;jiggle=2;" vertex="1" parent="1">
                    <mxGeometry x="40" y="352.5" width="120" height="20" as="geometry"/>
                </mxCell>
                <mxCell id="49" value="casualty (def)" style="rounded=1;whiteSpace=wrap;html=1;fontFamily=Helvetica;fontSize=11;labelBackgroundColor=none;fillColor=#ffe6cc;strokeColor=#d79b00;sketch=1;curveFitting=1;jiggle=2;" vertex="1" parent="1">
                    <mxGeometry x="40" y="332.5" width="120" height="20" as="geometry"/>
                </mxCell>
                <mxCell id="50" value="capture" style="rounded=1;whiteSpace=wrap;html=1;fontFamily=Helvetica;fontSize=11;labelBackgroundColor=none;fillColor=#ffe6cc;strokeColor=#d79b00;sketch=1;curveFitting=1;jiggle=2;" vertex="1" parent="1">
                    <mxGeometry x="40" y="312.5" width="120" height="20" as="geometry"/>
                </mxCell>
                <mxCell id="51" value="placement-end" style="rounded=1;whiteSpace=wrap;html=1;fontFamily=Helvetica;fontSize=11;labelBackgroundColor=none;fillColor=#f8cecc;strokeColor=#b85450;sketch=1;curveFitting=1;jiggle=2;" vertex="1" parent="1">
                    <mxGeometry x="40" y="412.5" width="120" height="20" as="geometry"/>
                </mxCell>
                <mxCell id="53" value="attack-end" style="rounded=1;whiteSpace=wrap;html=1;fontFamily=Helvetica;fontSize=11;labelBackgroundColor=none;fillColor=#f8cecc;strokeColor=#b85450;sketch=1;curveFitting=1;jiggle=2;" vertex="1" parent="1">
                    <mxGeometry x="40" y="292.5" width="120" height="20" as="geometry"/>
                </mxCell>
                <mxCell id="56" value="" style="edgeStyle=none;shape=connector;rounded=1;html=1;strokeColor=default;align=center;verticalAlign=middle;fontFamily=Helvetica;fontSize=11;fontColor=default;labelBackgroundColor=default;startSize=12;endArrow=open;endFill=0;endSize=12;" edge="1" parent="1" source="54" target="55">
                    <mxGeometry relative="1" as="geometry"/>
                </mxCell>
                <mxCell id="54" value="p&lt;sub&gt;d&lt;/sub&gt;" style="ellipse;whiteSpace=wrap;html=1;fontFamily=Helvetica;fontSize=11;fontColor=default;labelBackgroundColor=default;rounded=1;" vertex="1" parent="1">
                    <mxGeometry x="-20" y="490" width="25" height="25" as="geometry"/>
                </mxCell>
                <mxCell id="58" value="" style="edgeStyle=none;shape=connector;rounded=1;html=1;strokeColor=default;align=center;verticalAlign=middle;fontFamily=Helvetica;fontSize=11;fontColor=default;labelBackgroundColor=default;startSize=12;endArrow=open;endFill=0;endSize=12;" edge="1" parent="1" source="55" target="57">
                    <mxGeometry relative="1" as="geometry"/>
                </mxCell>
                <mxCell id="55" value="p&lt;sub&gt;a&lt;/sub&gt;" style="ellipse;whiteSpace=wrap;html=1;fontFamily=Helvetica;fontSize=11;fontColor=default;labelBackgroundColor=default;rounded=1;" vertex="1" parent="1">
                    <mxGeometry x="-20" y="390" width="25" height="25" as="geometry"/>
                </mxCell>
                <mxCell id="57" value="p&lt;sub&gt;m&lt;/sub&gt;" style="ellipse;whiteSpace=wrap;html=1;fontFamily=Helvetica;fontSize=11;fontColor=default;labelBackgroundColor=default;rounded=1;" vertex="1" parent="1">
                    <mxGeometry x="-20" y="270" width="25" height="25" as="geometry"/>
                </mxCell>
                <mxCell id="65" value="movement-phase" style="rounded=1;whiteSpace=wrap;html=1;fontFamily=Helvetica;fontSize=11;labelBackgroundColor=none;dashed=1;dashPattern=8 8;fillColor=#e1d5e7;strokeColor=#9673a6;sketch=1;curveFitting=1;jiggle=2;" vertex="1" parent="1">
                    <mxGeometry x="40" y="272.5" width="120" height="20" as="geometry"/>
                </mxCell>
                <mxCell id="66" value="move" style="rounded=1;whiteSpace=wrap;html=1;fontFamily=Helvetica;fontSize=11;labelBackgroundColor=none;fillColor=#ffe6cc;strokeColor=#d79b00;sketch=1;curveFitting=1;jiggle=2;" vertex="1" parent="1">
                    <mxGeometry x="40" y="252.5" width="120" height="20" as="geometry"/>
                </mxCell>
                <mxCell id="71" style="edgeStyle=none;shape=connector;rounded=1;html=1;entryX=1;entryY=0;entryDx=0;entryDy=0;strokeColor=default;align=center;verticalAlign=middle;fontFamily=Helvetica;fontSize=11;fontColor=default;labelBackgroundColor=default;startSize=12;endArrow=none;endFill=0;endSize=12;exitX=0;exitY=0.5;exitDx=0;exitDy=0;" edge="1" parent="1" source="67" target="57">
                    <mxGeometry relative="1" as="geometry">
                        <Array as="points">
                            <mxPoint x="20" y="243"/>
                        </Array>
                    </mxGeometry>
                </mxCell>
                <mxCell id="67" value="move" style="rounded=1;whiteSpace=wrap;html=1;fontFamily=Helvetica;fontSize=11;labelBackgroundColor=none;fillColor=#ffe6cc;strokeColor=#d79b00;sketch=1;curveFitting=1;jiggle=2;" vertex="1" parent="1">
                    <mxGeometry x="40" y="232.5" width="120" height="20" as="geometry"/>
                </mxCell>
                <mxCell id="68" value="movement-end" style="rounded=1;whiteSpace=wrap;html=1;fontFamily=Helvetica;fontSize=11;labelBackgroundColor=none;fillColor=#f8cecc;strokeColor=#b85450;sketch=1;curveFitting=1;jiggle=2;" vertex="1" parent="1">
                    <mxGeometry x="40" y="212.5" width="120" height="20" as="geometry"/>
                </mxCell>
                <mxCell id="69" value="turn-end" style="rounded=1;whiteSpace=wrap;html=1;fontFamily=Helvetica;fontSize=11;labelBackgroundColor=none;fillColor=#f8cecc;strokeColor=#b85450;sketch=1;curveFitting=1;jiggle=2;" vertex="1" parent="1">
                    <mxGeometry x="30" y="192.5" width="120" height="20" as="geometry"/>
                </mxCell>
                <mxCell id="70" style="edgeStyle=none;shape=connector;rounded=1;html=1;entryX=1;entryY=0.5;entryDx=0;entryDy=0;strokeColor=default;align=center;verticalAlign=middle;fontFamily=Helvetica;fontSize=11;fontColor=default;labelBackgroundColor=default;startSize=12;endArrow=none;endFill=0;endSize=12;exitX=0;exitY=0.5;exitDx=0;exitDy=0;" edge="1" parent="1" source="66" target="57">
                    <mxGeometry relative="1" as="geometry">
                        <Array as="points">
                            <mxPoint x="30" y="263"/>
                        </Array>
                    </mxGeometry>
                </mxCell>
                <mxCell id="80" style="edgeStyle=none;shape=connector;rounded=1;html=1;strokeColor=default;align=center;verticalAlign=middle;fontFamily=Helvetica;fontSize=11;fontColor=default;labelBackgroundColor=default;startSize=12;endArrow=open;endFill=0;endSize=12;" edge="1" parent="1" source="78" target="6">
                    <mxGeometry relative="1" as="geometry">
                        <Array as="points">
                            <mxPoint x="-580" y="530"/>
                        </Array>
                    </mxGeometry>
                </mxCell>
                <mxCell id="78" value="Internal State" style="rounded=1;whiteSpace=wrap;html=1;fillColor=#d5e8d4;strokeColor=#82b366;sketch=1;curveFitting=1;jiggle=2;" vertex="1" parent="1">
                    <mxGeometry x="-720" y="420" width="120" height="130" as="geometry"/>
                </mxCell>
                <mxCell id="83" value="Planning" style="text;html=1;align=center;verticalAlign=middle;resizable=0;points=[];autosize=1;strokeColor=none;fillColor=none;fontFamily=Helvetica;fontSize=25;fontColor=default;labelBackgroundColor=none;" vertex="1" parent="1">
                    <mxGeometry x="-830" y="116.25" width="120" height="40" as="geometry"/>
                </mxCell>
                <mxCell id="84" value="WorldStateView" style="rounded=1;whiteSpace=wrap;html=1;fillColor=#d5e8d4;strokeColor=#82b366;sketch=1;curveFitting=1;jiggle=2;" vertex="1" parent="1">
                    <mxGeometry x="-810" y="166.25" width="100" height="70" as="geometry"/>
                </mxCell>
                <mxCell id="85" value="Plans" style="rounded=1;whiteSpace=wrap;html=1;fillColor=#fff2cc;strokeColor=#d6b656;sketch=1;curveFitting=1;jiggle=2;" vertex="1" parent="1">
                    <mxGeometry x="-700" y="208.75" width="100" height="67.5" as="geometry"/>
                </mxCell>
                <mxCell id="86" value="InternalStateView" style="rounded=1;whiteSpace=wrap;html=1;fillColor=#d5e8d4;strokeColor=#82b366;sketch=1;curveFitting=1;jiggle=2;" vertex="1" parent="1">
                    <mxGeometry x="-810" y="248.75" width="100" height="77.5" as="geometry"/>
                </mxCell>
                <mxCell id="89" style="edgeStyle=none;shape=connector;rounded=1;html=1;strokeColor=default;align=center;verticalAlign=middle;fontFamily=Helvetica;fontSize=11;fontColor=default;labelBackgroundColor=default;startSize=12;endArrow=open;endFill=0;endSize=12;exitX=0.011;exitY=0.589;exitDx=0;exitDy=0;exitPerimeter=0;" edge="1" parent="1" source="5">
                    <mxGeometry relative="1" as="geometry">
                        <mxPoint x="-431" y="284" as="targetPoint"/>
                    </mxGeometry>
                </mxCell>
                <mxCell id="93" value="produces side effects" style="edgeLabel;html=1;align=center;verticalAlign=middle;resizable=0;points=[];rounded=1;fontFamily=Helvetica;fontSize=11;fontColor=default;labelBackgroundColor=none;" vertex="1" connectable="0" parent="89">
                    <mxGeometry x="-0.0132" relative="1" as="geometry">
                        <mxPoint x="-6" y="-11" as="offset"/>
                    </mxGeometry>
                </mxCell>
                <mxCell id="90" value="DummyStacks" style="rounded=1;whiteSpace=wrap;html=1;fillColor=#dae8fc;strokeColor=#6c8ebf;sketch=1;curveFitting=1;jiggle=2;" vertex="1" parent="1">
                    <mxGeometry x="-580" y="184.38" width="120" height="123.75" as="geometry"/>
                </mxCell>
            </root>
        </mxGraphModel>
    </diagram>
</mxfile>